<?xml version="1.0" standalone="no"?>
<!DOCTYPE svg PUBLIC "-//W3C//DTD SVG 20010904//EN"
 "http://www.w3.org/TR/2001/REC-SVG-20010904/DTD/svg10.dtd">
<svg version="1.0" xmlns="http://www.w3.org/2000/svg"
 width="512.000000pt" height="512.000000pt" viewBox="0 0 512.000000 512.000000"
 preserveAspectRatio="xMidYMid meet">
<metadata>
Created by potrace 1.14, written by Peter Selinger 2001-2017
</metadata>
<g transform="translate(0.000000,512.000000) scale(0.100000,-0.100000)"
fill="#000000" stroke="none">
<path d="M2240 4394 c-118 -23 -218 -80 -334 -192 -138 -135 -207 -280 -212
-451 l-3 -95 -46 -18 c-166 -65 -273 -195 -298 -361 -9 -63 -19 -86 -37 -87
-3 0 -26 29 -53 64 -123 168 -363 267 -607 253 -156 -9 -281 -68 -362 -171
-84 -106 -112 -197 -111 -356 3 -232 85 -422 234 -540 28 -22 57 -44 65 -48
13 -7 13 -14 0 -49 -8 -23 -18 -72 -21 -110 -19 -194 74 -355 260 -450 44 -22
92 -43 108 -47 15 -3 27 -11 27 -18 0 -22 88 -195 134 -262 25 -38 45 -70 44
-71 -36 -19 -118 -102 -150 -151 -23 -35 -46 -64 -50 -64 -4 0 -99 36 -210 81
-227 91 -251 94 -300 39 -34 -37 -38 -95 -8 -132 12 -16 68 -46 152 -82 l133
-56 170 -13 170 -12 0 -90 0 -90 -160 -8 -160 -9 -135 -54 c-154 -62 -150 -61
-173 -94 -45 -66 4 -159 85 -160 23 0 97 24 190 61 84 34 174 70 200 80 l48
19 33 -53 c93 -144 244 -241 418 -268 57 -9 90 -8 168 5 53 9 348 52 656 96
308 44 634 91 725 105 91 14 356 52 590 86 904 128 861 119 908 189 12 18 50
49 83 67 322 178 523 503 555 893 16 201 -50 439 -169 608 -17 25 -35 50 -38
55 -3 5 -42 3 -87 -4 -90 -14 -180 -4 -280 31 -31 11 -62 20 -69 20 -28 0 -23
-30 18 -96 118 -194 141 -312 74 -380 -30 -30 -40 -30 -63 -2 -58 73 -136 145
-193 179 -37 21 -81 55 -99 76 -40 45 -80 128 -80 166 0 15 -3 27 -6 27 -4 0
-25 -16 -47 -36 -73 -66 -113 -78 -277 -79 -115 0 -157 -4 -203 -20 -65 -21
-90 -15 -95 26 -13 83 55 153 232 240 156 76 160 86 44 123 -101 31 -197 86
-249 143 -22 24 -45 43 -53 43 -19 0 -193 -90 -251 -130 -26 -18 -79 -59 -116
-91 l-68 -59 0 -102 c0 -70 -7 -129 -21 -183 -19 -77 -81 -218 -113 -260 -15
-19 -15 -18 -22 20 -46 279 -171 480 -372 601 -31 18 -77 40 -102 49 -43 14
-49 20 -65 65 -15 43 -16 57 -6 99 l12 49 111 55 c124 62 207 125 266 204 53
71 68 116 48 147 -35 52 -83 38 -125 -36 -16 -30 -53 -75 -81 -100 -51 -46
-159 -113 -168 -105 -2 3 3 33 12 68 15 56 155 523 186 621 10 31 9 41 -5 62
-18 29 -61 35 -88 14 -19 -15 -81 -204 -169 -516 -34 -119 -65 -220 -69 -225
-11 -12 -79 113 -102 187 -18 59 -20 83 -14 169 7 112 -3 137 -53 137 -25 1
-25 1 7 15 32 14 32 14 32 88 0 146 53 286 155 409 59 71 186 174 259 209 40
20 44 24 27 31 -27 9 -159 18 -191 12z m-334 -787 c-8 -12 -20 -54 -26 -93
-16 -105 7 -229 65 -344 l23 -45 -67 32 c-70 35 -193 60 -238 48 l-26 -6 6 67
c12 127 89 246 211 326 33 21 61 38 63 38 2 0 -3 -10 -11 -23z m-488 -404
c-10 -2 -28 -2 -40 0 -13 2 -5 4 17 4 22 1 32 -1 23 -4z m1019 -1135 c-3 -8
-6 -5 -6 6 -1 11 2 17 5 13 3 -3 4 -12 1 -19z m10 -115 c-3 -10 -5 -2 -5 17 0
19 2 27 5 18 2 -10 2 -26 0 -35z m153 -150 c0 -119 47 -358 90 -459 11 -26 18
-49 16 -52 -3 -2 -63 4 -133 14 l-128 19 -7 40 c-9 54 -10 237 -1 371 6 87 9
99 13 61 l5 -48 65 55 c36 30 68 55 73 56 4 0 7 -26 7 -57z"/>
<path d="M3113 3432 c-7 -5 -25 -37 -39 -73 -14 -35 -36 -82 -49 -104 -18 -32
-24 -60 -28 -139 l-4 -100 29 35 c87 103 178 271 178 331 0 46 -49 74 -87 50z"/>
</g>
</svg>
